<?xml version="1.0" standalone="no"?>
<!DOCTYPE svg PUBLIC "-//W3C//DTD SVG 20010904//EN"
 "http://www.w3.org/TR/2001/REC-SVG-20010904/DTD/svg10.dtd">
<svg version="1.0" xmlns="http://www.w3.org/2000/svg"
 width="383.000000pt" height="383.000000pt" viewBox="0 0 383.000000 383.000000"
 preserveAspectRatio="xMidYMid meet">
<metadata>
Created by potrace 1.14, written by Peter Selinger 2001-2017
</metadata>
<g transform="translate(0.000000,383.000000) scale(0.100000,-0.100000)"
fill="#000000" stroke="none">
<path d="M1876 3475 c17 -14 14 -15 -46 -10 -48 5 -74 2 -100 -9 -19 -8 -31
-15 -27 -16 15 0 -46 -46 -93 -70 -45 -22 -122 -87 -149 -123 -11 -15 -5 -14
27 6 37 24 107 57 120 57 3 0 -28 -35 -70 -77 -75 -78 -119 -143 -97 -143 7 0
9 -9 6 -22 -3 -13 -9 -35 -12 -50 -8 -33 23 -55 55 -38 18 10 20 8 20 -20 0
-17 -12 -54 -27 -83 l-28 -52 -3 37 c-4 44 -30 65 -61 49 -47 -26 -128 -157
-155 -252 -9 -30 -20 -105 -25 -165 -7 -97 -8 -101 -10 -39 0 39 4 109 10 158
6 48 9 92 7 98 -2 6 -23 -45 -46 -113 -52 -151 -67 -264 -53 -393 6 -49 9 -90
7 -92 -2 -2 -8 10 -14 26 -14 39 -26 40 -17 2 18 -82 41 -231 34 -224 -4 4
-19 53 -33 108 -47 180 -66 248 -71 253 -12 13 -4 -171 9 -203 20 -48 11 -44
-15 6 -11 23 -23 67 -26 98 -7 85 -11 90 -36 47 -12 -21 -33 -46 -47 -54 l-25
-16 22 25 c32 35 60 106 68 169 4 30 14 79 22 108 8 30 13 56 10 59 -9 8 -58
-85 -78 -145 -11 -36 -18 -48 -18 -32 -1 14 24 79 54 145 31 66 62 143 70 170
14 48 14 49 -3 29 -18 -22 -97 -85 -122 -99 -8 -4 8 16 36 46 28 30 57 65 66
79 24 40 58 121 48 115 -14 -9 -12 24 5 83 22 73 34 72 19 -1 -7 -34 -12 -63
-10 -64 5 -5 65 132 71 164 4 15 18 53 32 85 25 55 25 57 9 97 -9 23 -16 53
-16 66 0 18 -5 25 -20 25 -25 0 -30 -9 -104 -218 -71 -198 -94 -254 -95 -232
-1 13 -2 13 -12 0 -9 -13 -10 -13 -6 0 2 8 10 14 17 12 8 -2 10 3 6 13 -7 20
43 187 89 297 48 113 50 128 23 128 -20 0 -29 -17 -78 -147 -30 -82 -70 -169
-87 -195 -38 -54 -39 -58 -17 -58 18 0 17 -6 -32 -134 -37 -95 -43 -151 -19
-182 8 -10 14 -30 14 -44 0 -34 -27 -132 -28 -101 -2 50 -13 10 -20 -73 -13
-137 2 -269 39 -341 l31 -60 -35 40 -35 39 -3 -103 -3 -104 32 -14 c18 -7 41
-13 52 -13 11 0 22 -4 25 -8 3 -5 -18 -5 -47 -1 -29 3 -54 5 -56 3 -2 -2 1 -4
7 -4 7 0 12 -9 12 -20 0 -12 7 -20 18 -20 15 0 15 2 2 11 -12 8 -11 10 5 7 17
-3 20 -10 18 -46 -1 -27 2 -40 9 -36 6 4 8 -2 4 -17 -3 -13 3 -6 14 16 10 22
21 48 24 58 2 9 9 17 14 17 10 0 6 -25 -23 -135 -19 -75 -13 -97 23 -89 26 5
26 5 7 -11 -11 -9 -41 -24 -67 -33 -49 -17 -65 -42 -27 -42 28 0 57 16 98 54
24 22 31 25 23 10 -6 -11 -18 -26 -26 -33 -9 -8 -13 -18 -9 -24 3 -6 1 -7 -5
-3 -6 3 -16 -3 -22 -15 -10 -17 -9 -20 1 -13 7 4 3 -9 -10 -29 -12 -20 -18
-37 -12 -37 6 0 11 -6 11 -14 0 -27 -98 -162 -185 -256 -117 -126 -179 -222
-179 -275 1 -45 21 -141 24 -110 1 13 6 6 13 -18 7 -21 16 -38 21 -37 5 1 13
-4 17 -12 7 -10 9 -9 9 4 0 11 5 15 15 12 8 -4 15 -12 15 -18 0 -38 49 -40 51
-2 0 20 1 20 9 1 5 -11 11 -29 15 -39 5 -19 6 -19 21 2 8 11 14 25 13 29 -3
19 2 23 21 13 12 -6 20 -7 20 -1 0 5 8 17 18 27 9 10 24 50 33 90 16 73 16 73
-6 94 -46 43 -57 167 -20 216 13 17 15 11 16 -61 0 -44 4 -91 9 -105 l7 -25 7
30 c4 17 14 50 22 75 8 25 17 68 20 95 4 28 22 81 41 120 19 38 29 64 21 58
-11 -10 -14 -8 -13 12 0 13 4 27 8 31 4 5 5 0 2 -11 -5 -16 -5 -17 3 -5 6 8 9
17 7 21 -3 3 9 31 25 60 16 30 30 50 30 44 0 -5 9 5 21 24 33 54 33 28 0 -38
-17 -34 -29 -61 -26 -61 9 0 80 152 121 257 21 57 43 103 48 103 12 0 -1 -156
-18 -213 -8 -26 -10 -45 -5 -42 16 10 48 133 55 209 l7 76 25 -40 c14 -22 28
-37 30 -35 3 3 0 10 -6 17 -5 7 -17 38 -26 68 l-16 55 30 -33 c17 -18 42 -37
57 -43 l28 -10 -21 23 c-11 13 -31 41 -44 63 l-23 40 47 -48 c26 -27 50 -46
54 -43 3 4 0 12 -6 18 -7 7 -12 21 -12 32 1 17 5 14 21 -14 11 -19 17 -26 14
-15 -30 90 -37 127 -27 137 9 9 15 9 24 0 7 -7 16 -12 21 -12 5 0 -2 9 -17 21
-33 26 -56 70 -60 114 -2 34 6 45 19 25 3 -5 11 -10 16 -10 6 0 8 4 4 9 -3 6
4 15 15 21 11 6 20 7 19 3 -1 -4 -1 -15 0 -23 1 -13 3 -13 10 0 6 8 8 17 5 22
-18 29 155 48 230 24 49 -15 72 -13 61 5 -4 5 -1 9 5 9 22 0 -4 23 -49 43 -29
14 -76 23 -131 27 l-85 5 -2 35 c-2 20 9 65 25 105 25 65 30 71 69 85 23 8 45
11 49 8 3 -4 10 -42 15 -85 13 -110 21 -135 49 -145 l25 -8 -24 19 c-19 14
-22 24 -17 45 3 14 11 26 17 26 6 0 8 4 4 9 -10 17 8 122 24 138 12 12 13 17
3 21 -6 2 -12 8 -12 14 0 19 52 180 56 175 3 -3 14 -46 24 -96 10 -50 28 -120
40 -156 23 -70 20 -88 -33 -151 -18 -21 -22 -35 -16 -49 7 -19 8 -18 8 3 1 13
15 38 33 55 17 18 30 34 29 35 -2 2 1 7 5 10 4 4 4 1 0 -5 -4 -7 -2 -13 3 -13
24 0 10 -55 -21 -88 -30 -31 -30 -33 -8 -22 14 7 40 24 58 37 l33 25 22 -29
c40 -51 89 -100 78 -76 -16 31 -14 35 12 28 l22 -7 -21 16 c-32 23 -46 70 -29
93 7 10 11 30 8 45 -6 30 34 161 47 153 5 -3 10 1 13 7 2 7 7 11 10 8 9 -8
-19 -97 -43 -138 -22 -36 -22 -53 -1 -28 7 8 28 43 47 78 l35 63 -7 -45 c-3
-25 -19 -82 -34 -127 -16 -46 -27 -83 -25 -83 13 0 93 135 116 195 l28 70 73
-1 c109 -2 117 -8 111 -91 -8 -108 -19 -143 -48 -143 -60 0 -129 -23 -164 -55
-20 -19 -33 -36 -30 -39 3 -3 39 1 80 10 100 21 240 3 253 -33 6 -14 -36 -107
-53 -117 -5 -4 -8 -19 -7 -34 3 -23 -3 -30 -38 -49 l-41 -22 41 -1 c23 0 58 7
77 15 53 22 60 20 52 -17 -18 -85 -71 -147 -128 -149 -21 0 -21 -1 -2 -9 11
-5 35 -9 53 -9 30 -1 32 -3 21 -22 -36 -68 -199 -180 -359 -247 -113 -47 -113
-47 -235 4 -147 61 -143 59 -123 43 17 -14 68 -109 68 -126 0 -5 28 -40 63
-77 102 -113 114 -138 78 -170 -19 -17 -61 -15 -61 4 0 4 -9 6 -20 3 -11 -3
-20 -11 -20 -18 0 -8 -12 -23 -26 -34 -27 -21 -26 -32 11 -66 35 -34 63 -78
58 -91 -5 -12 -16 -14 -57 -9 -70 9 -202 43 -238 61 -28 14 -28 17 -22 67 4
29 16 76 26 105 22 60 16 79 -13 42 -18 -24 -59 -138 -59 -166 0 -8 -4 -14 -8
-14 -11 0 -88 52 -132 88 -31 27 -33 31 -20 48 9 10 10 15 2 10 -8 -5 -15 2
-22 18 -13 35 -21 33 -14 -3 6 -29 6 -29 -30 -21 -25 5 -36 4 -36 -4 0 -7 -4
-6 -9 3 -7 11 -9 11 -14 0 -4 -11 -9 -9 -21 6 -18 22 -18 22 1 -45 3 -10 1 -9
-7 3 -12 18 -50 24 -50 7 0 -17 -64 -70 -78 -65 -7 3 -11 1 -8 -4 3 -4 -3 -30
-12 -57 -18 -50 -21 -105 -7 -137 4 -10 5 -20 2 -23 -5 -5 -105 12 -132 22 -7
3 -12 -12 -13 -38 -2 -27 1 -38 6 -30 13 19 53 -108 63 -198 4 -41 10 -88 14
-105 7 -30 7 -30 -19 8 -15 20 -31 37 -36 37 -18 0 -10 -55 15 -104 14 -27 25
-57 25 -67 0 -12 14 -21 52 -30 l52 -14 -50 -8 c-27 -4 -90 -17 -140 -28 -90
-21 -91 -21 -80 -45 12 -26 21 -30 31 -14 3 6 24 10 45 10 41 0 57 -15 94 -88
17 -33 17 -33 -15 -63 l-31 -29 1120 0 c1059 0 1121 1 1126 18 12 39 35 206
46 332 15 178 16 183 38 171 10 -5 47 -12 82 -16 36 -3 87 -12 114 -18 39 -9
50 -9 54 1 3 9 10 9 30 -2 15 -7 41 -17 57 -21 36 -8 148 -76 149 -90 1 -5
-28 -18 -64 -27 -61 -17 -50 -17 47 -2 55 8 73 -6 73 -59 0 -46 -28 -112 -65
-151 -22 -23 -31 -26 -95 -26 -50 0 -83 6 -111 20 l-41 19 14 -22 c8 -12 38
-34 68 -49 29 -15 55 -30 58 -33 3 -2 -15 -14 -39 -25 l-44 -20 78 0 c47 0 92
6 114 15 19 8 39 15 44 15 5 0 9 -7 9 -15 0 -11 11 -15 40 -15 l40 0 0 364 0
365 -100 72 c-55 40 -98 75 -96 77 7 6 116 -28 158 -49 21 -11 38 -15 38 -9 0
5 -22 21 -50 35 -28 14 -50 27 -50 28 0 2 15 2 33 1 55 -5 67 3 67 45 0 38 0
38 -46 45 -26 3 -68 6 -93 6 -63 0 -153 24 -201 55 -22 14 -40 28 -40 30 0 3
12 29 26 58 20 37 28 72 31 122 l4 70 -24 -62 c-31 -80 -71 -134 -98 -130 -31
5 -107 86 -153 164 -24 40 -45 70 -48 67 -3 -3 -8 2 -12 11 -3 9 -2 14 2 12 4
-3 7 43 7 101 -1 82 -6 127 -24 192 -14 47 -27 89 -31 93 -4 4 -5 -33 -2 -82
3 -60 1 -91 -6 -91 -26 0 -52 153 -52 309 0 104 6 121 20 59 4 -18 5 32 2 112
-6 169 -1 172 64 43 22 -42 49 -87 62 -99 12 -13 22 -29 22 -35 0 -7 2 -10 5
-7 5 5 -61 175 -75 193 -4 6 -22 53 -40 105 -28 84 -33 114 -41 260 -5 91 -15
193 -22 227 -10 41 -11 65 -4 72 25 25 -76 151 -122 151 -28 0 -34 12 -89 165
-49 138 -67 164 -94 137 -6 -6 -22 -7 -40 -1 -42 12 -48 5 -49 -49 -1 -26 -4
-60 -8 -77 l-6 -29 -37 49 c-78 107 -201 206 -323 260 -98 43 -129 48 -209 34
l-71 -13 57 -6 c81 -7 88 -19 18 -33 -14 -3 -43 -11 -65 -17 -59 -16 -70 -17
-70 0 0 8 -9 20 -20 25 -13 7 -20 21 -20 38 1 23 -3 27 -29 27 -29 0 -29 -1
-10 -15z m-116 -79 c0 -2 -27 -13 -60 -25 -78 -29 -114 -23 -40 6 49 20 100
29 100 19z m784 -148 c25 -32 28 -53 4 -26 -70 77 -73 81 -51 69 12 -6 33 -25
47 -43z m-654 -28 c-8 -15 -15 -19 -22 -12 -7 7 -6 17 2 32 8 15 15 19 22 12
7 -7 6 -17 -2 -32z m947 -209 c-2 -9 -11 9 -20 41 -22 74 -21 85 4 24 11 -27
18 -56 16 -65z m-100 47 c-3 -8 -6 -5 -6 6 -1 11 2 17 5 13 3 -3 4 -12 1 -19z
m-1136 -143 c15 5 19 2 19 -17 0 -37 -14 -49 -59 -53 -42 -4 -43 -3 -36 22 3
14 13 36 22 50 14 21 17 22 25 8 6 -10 16 -14 29 -10z m430 -38 c-8 -8 -11 -5
-11 9 0 27 14 41 18 19 2 -9 -1 -22 -7 -28z m199 19 c0 -6 -4 -17 -9 -24 -7
-11 -11 -11 -24 2 -8 9 -20 16 -26 16 -6 0 -8 6 -5 13 6 16 64 10 64 -7z
m-532 2 c12 4 14 1 9 -12 -4 -10 -7 -22 -7 -27 0 -5 -8 -9 -17 -9 -9 0 -25 -8
-35 -17 -19 -17 -19 -16 -12 12 11 48 24 69 36 57 6 -6 17 -8 26 -4z m90 -43
c2 -26 0 -55 -3 -64 -11 -25 -23 13 -24 72 -1 65 23 59 27 -8z m83 35 c15 0
31 -4 34 -10 3 -5 18 -10 32 -10 22 0 24 -3 19 -27 -8 -33 -44 -66 -63 -58 -8
3 -30 5 -49 5 l-34 0 0 53 c0 57 7 74 24 57 5 -5 22 -10 37 -10z m-927 -88 c3
-5 -1 -9 -9 -9 -8 0 -15 4 -15 9 0 4 4 8 9 8 6 0 12 -4 15 -8z m1290 -287 c15
-37 26 -69 26 -71 0 -8 -99 -4 -104 5 -5 8 7 105 20 161 l6 25 13 -26 c8 -14
25 -56 39 -94z m-654 -34 c0 -41 -3 -51 -20 -55 -11 -3 -29 -9 -41 -12 -19 -5
-19 -3 7 48 22 45 39 67 52 68 1 0 2 -22 2 -49z m735 -50 c-11 -10 -35 11 -35
30 0 21 0 21 19 -2 11 -13 18 -26 16 -28z m-901 -228 l7 -52 -35 -6 c-19 -4
-37 -13 -40 -21 -3 -8 -10 -14 -15 -14 -14 0 5 71 36 136 30 64 33 62 47 -43z
m1012 88 c-3 -5 1 -11 9 -15 20 -7 20 -56 -1 -56 -11 0 -14 -6 -9 -21 6 -19 4
-21 -19 -17 -14 3 -23 1 -20 -3 6 -11 -7 -11 -23 -1 -8 5 -1 24 24 65 20 31
38 57 40 57 2 0 2 -4 -1 -9z m-809 -43 c-3 -8 -6 -5 -6 6 -1 11 2 17 5 13 3
-3 4 -12 1 -19z m-665 -420 c-2 -30 -9 -48 -17 -48 -10 0 -11 9 -4 42 17 74
28 77 21 6z m1796 5 c7 -69 20 -144 21 -126 3 50 21 26 56 -75 51 -145 91
-231 123 -266 l27 -29 -25 7 c-14 4 -47 8 -73 9 -43 3 -51 0 -74 -27 -14 -17
-30 -41 -36 -53 -13 -29 -23 -29 -94 2 -51 23 -62 25 -107 15 -27 -6 -50 -9
-51 -8 -1 2 -16 52 -33 111 l-31 108 23 52 c13 29 35 70 50 91 14 22 29 57 32
78 6 37 22 53 103 102 18 12 7 -42 -25 -112 -13 -29 -19 -50 -14 -47 14 8 39
58 61 119 9 28 18 43 18 34 1 -26 16 -22 29 7 14 30 17 31 20 8z m-1748 -3 c0
-5 -5 -10 -11 -10 -5 0 -7 5 -4 10 3 6 8 10 11 10 2 0 4 -4 4 -10z m1429 -241
c-11 -51 -16 -59 -36 -59 -28 0 -30 -14 -3 -33 18 -13 110 -194 110 -217 0
-11 -41 -30 -66 -30 -9 0 -14 11 -15 33 0 31 -16 82 -19 62 -1 -5 -1 -29 0
-51 1 -23 -3 -45 -9 -48 -6 -4 -38 -4 -72 0 -43 5 -69 14 -90 31 -27 23 -29
29 -29 103 0 58 4 83 16 94 20 21 57 20 97 -1 29 -15 31 -15 19 0 -8 9 -22 19
-33 22 -28 9 -23 22 20 49 21 14 55 48 77 77 21 29 40 47 42 40 2 -7 -2 -39
-9 -72z m714 -114 l6 -30 -14 30 c-16 34 -21 72 -6 45 5 -8 11 -28 14 -45z
m-2306 -313 c-41 -56 -47 -60 -42 -21 5 37 55 96 66 77 4 -7 -6 -31 -24 -56z
m1176 -154 c-12 -21 -13 -41 -1 -56 30 -35 -51 -90 -110 -75 -20 5 -23 10 -18
33 6 32 44 73 71 78 10 2 24 10 32 18 18 17 37 19 26 2z m-60 -5 c-7 -2 -19
-2 -25 0 -7 3 -2 5 12 5 14 0 19 -2 13 -5z m-1346 -88 c0 -8 -4 -15 -9 -15 -4
0 -8 -11 -8 -24 0 -14 -4 -28 -10 -31 -5 -3 -14 -20 -19 -38 l-9 -32 -1 39
c-1 22 8 54 21 77 23 41 35 49 35 24z m3088 -119 c17 -14 25 -25 19 -26 -14 0
-129 74 -139 90 -10 16 84 -34 120 -64z m-2717 -33 c11 -10 23 -36 27 -57 6
-38 6 -38 -12 -21 -59 59 -73 128 -15 78z m-281 -95 c-3 -7 -5 -2 -5 12 0 14
2 19 5 13 2 -7 2 -19 0 -25z m2562 -90 c22 -12 44 -30 50 -40 9 -15 8 -18 -10
-18 -32 0 -89 39 -89 61 0 24 3 24 49 -3z m-2059 -128 c0 -28 -21 -72 -46 -95
-12 -11 -36 -44 -54 -73 -18 -29 -34 -51 -37 -49 -7 7 17 128 32 164 13 31 66
73 93 73 6 0 12 -9 12 -20z"/>
<path d="M2706 1328 c-62 -22 -61 -29 2 -43 27 -6 38 -3 58 16 26 24 32 49 12
48 -7 0 -40 -10 -72 -21z"/>
<path d="M839 1193 c-13 -16 -12 -17 4 -4 9 7 17 15 17 17 0 8 -8 3 -21 -13z"/>
<path d="M2130 2200 c-13 -9 -13 -10 0 -10 8 0 22 5 30 10 13 9 13 10 0 10 -8
0 -22 -5 -30 -10z"/>
<path d="M1380 1975 c0 -8 5 -15 10 -15 6 0 10 7 10 15 0 8 -4 15 -10 15 -5 0
-10 -7 -10 -15z"/>
<path d="M3101 1884 c0 -11 3 -14 6 -6 3 7 2 16 -1 19 -3 4 -6 -2 -5 -13z"/>
<path d="M1768 1683 c-31 -7 -17 -36 22 -48 24 -7 24 -7 5 9 -16 13 -17 17 -6
25 16 10 3 19 -21 14z"/>
<path d="M2043 1683 c30 -5 33 -13 15 -31 -7 -7 -8 -12 -2 -12 14 0 34 22 34
37 0 9 -13 12 -37 12 -31 -2 -33 -3 -10 -6z"/>
<path d="M1497 1515 c-24 -51 -21 -54 12 -15 27 32 31 50 12 50 -4 0 -15 -16
-24 -35z"/>
<path d="M979 1273 c-13 -16 -12 -17 4 -4 16 13 21 21 13 21 -2 0 -10 -8 -17
-17z"/>
<path d="M1265 1232 c-8 -9 -6 -72 3 -72 5 0 17 9 27 20 10 11 25 20 34 21 13
0 12 2 -2 8 -10 4 -18 11 -18 16 1 11 -35 16 -44 7z"/>
<path d="M1560 1185 c-7 -8 -8 -15 -2 -15 5 0 15 7 22 15 7 8 8 15 2 15 -5 0
-15 -7 -22 -15z"/>
<path d="M676 572 c-2 -4 -1 -14 5 -22 7 -12 9 -10 9 8 0 23 -5 28 -14 14z"/>
<path d="M121 160 c-1 -8 -13 -38 -28 -67 -24 -48 -29 -53 -60 -53 -26 0 -33
-4 -33 -20 0 -19 7 -20 202 -20 l201 0 -23 25 c-29 30 -34 32 -20 5 10 -19 10
-20 -9 -8 -11 7 -21 21 -23 32 -5 30 -28 32 -28 3 0 -25 0 -25 -32 -10 -18 9
-37 22 -41 30 -9 15 -70 17 -98 3 -22 -12 -23 -5 -8 38 6 17 9 37 6 44 -4 9
-6 9 -6 -2z"/>
<path d="M797 24 c-11 -11 3 -24 25 -24 17 0 18 2 8 15 -13 16 -23 19 -33 9z"/>
</g>
</svg>
